<svg width="3152" height="484" viewBox="0 0 3152 484" fill="none" xmlns="http://www.w3.org/2000/svg">
<g clip-path="url(#clip0_372_907)">
<path d="M81.5631 95.9314L284.846 0C284.846 0 287.821 38.2185 275.604 62.706C263.386 87.1934 256.667 92.1334 245.379 100.659C231.144 111.415 120.844 160.682 120.844 160.682C120.844 160.682 86.5031 148.598 77.2339 137.39C67.9648 126.182 67.354 106.21 81.5631 95.9314Z" fill="url(#paint0_linear_372_907)"/>
<path d="M252.603 387.842L49.2936 483.773C49.2936 483.773 46.319 445.555 58.5362 421.067C70.7534 396.58 77.4728 391.64 88.7604 383.115C102.996 372.358 216.456 322.693 216.456 322.693C216.456 322.693 247.637 335.175 256.906 346.383C266.175 357.591 266.786 377.564 252.577 387.842H252.603Z" fill="#3D68FE"/>
<path d="M252.603 387.842L49.2936 483.773C49.2936 483.773 46.319 445.555 58.5362 421.067C70.7534 396.58 77.4728 391.64 88.7604 383.115C102.996 372.358 216.456 322.693 216.456 322.693C216.456 322.693 247.637 335.175 256.906 346.383C266.175 357.591 266.786 377.564 252.577 387.842H252.603Z" fill="url(#paint1_linear_372_907)"/>
<path d="M55.8537 109.901C54.3133 124.589 50.3825 138.718 74.4716 155.37C83.7673 161.798 114.231 177.6 164.746 198.688C215.261 219.776 266.972 244.29 273.346 248.46C279.72 252.63 300.967 265.803 307.129 287.369C313.291 308.935 312.043 323.808 307.395 337.061C302.747 350.314 294.779 360.831 277.542 373.235C279.109 353.873 279.933 336.689 249.39 320.541C220.892 305.482 141.029 270.717 104.536 253.931C84.1126 244.529 62.52 235.765 50.5419 227.133C41.1665 220.361 27.887 204.505 23.9032 184.585C19.9194 164.666 32.3783 128.801 55.9068 109.954L55.8537 109.901Z" fill="#2F50C1"/>
<path d="M334.458 174.36L264.661 209.471C259.164 212.233 252.683 208.25 252.683 202.088V131.892C252.683 125.731 259.19 121.747 264.688 124.509L334.458 159.593C340.541 162.648 340.541 171.306 334.458 174.36Z" fill="#2F50C1"/>
<path d="M81.7754 319.851L11.9781 354.962C6.48041 357.724 0 353.714 0 347.579V277.383C0 271.221 6.50697 267.237 12.0047 270L81.7754 305.084C87.8574 308.138 87.8574 316.797 81.7754 319.851Z" fill="#2F50C1"/>
</g>
<path d="M604.554 344.708C588.898 344.708 574.993 341.927 562.839 336.365C550.685 330.803 541.209 322.872 534.411 312.572C527.613 302.272 524.111 290.015 523.905 275.801H563.148C563.148 283.011 564.796 289.5 568.092 295.268C571.594 300.83 576.332 305.259 582.306 308.555C588.486 311.851 595.902 313.499 604.554 313.499C611.97 313.499 618.356 312.366 623.712 310.1C629.274 307.628 633.497 304.229 636.381 299.903C639.471 295.371 641.016 290.118 641.016 284.144C641.016 277.346 639.368 271.784 636.072 267.458C632.982 262.926 628.656 259.115 623.094 256.025C617.532 252.935 611.146 250.257 603.936 247.991C596.726 245.519 589.104 242.944 581.07 240.266C563.972 234.498 551.097 227.185 542.445 218.327C533.793 209.263 529.467 197.212 529.467 182.174C529.467 169.608 532.454 158.793 538.428 149.729C544.402 140.665 552.745 133.661 563.457 128.717C574.375 123.567 586.941 120.992 601.155 120.992C615.575 120.992 628.141 123.567 638.853 128.717C649.771 133.867 658.32 141.077 664.5 150.347C670.886 159.411 674.182 170.329 674.388 183.101H634.836C634.63 177.745 633.188 172.801 630.51 168.269C627.832 163.531 623.918 159.72 618.768 156.836C613.824 153.746 607.747 152.201 600.537 152.201C594.357 151.995 588.795 153.025 583.851 155.291C579.113 157.351 575.302 160.441 572.418 164.561C569.74 168.475 568.401 173.419 568.401 179.393C568.401 185.161 569.637 190.002 572.109 193.916C574.787 197.624 578.598 200.817 583.542 203.495C588.486 205.967 594.254 208.336 600.846 210.602C607.438 212.868 614.648 215.34 622.476 218.018C633.188 221.52 642.87 225.846 651.522 230.996C660.38 235.94 667.384 242.429 672.534 250.463C677.684 258.497 680.259 268.9 680.259 281.672C680.259 292.796 677.375 303.199 671.607 312.881C665.839 322.357 657.393 330.082 646.269 336.056C635.145 341.824 621.24 344.708 604.554 344.708ZM716.622 341V185.264H753.702V341H716.622ZM735.162 160.544C728.364 160.544 722.699 158.484 718.167 154.364C713.841 150.038 711.678 144.785 711.678 138.605C711.678 132.219 713.841 127.069 718.167 123.155C722.699 119.035 728.364 116.975 735.162 116.975C741.96 116.975 747.522 119.035 751.848 123.155C756.38 127.069 758.646 132.219 758.646 138.605C758.646 144.785 756.38 150.038 751.848 154.364C747.522 158.484 741.96 160.544 735.162 160.544ZM865.768 344.708C851.348 344.708 838.473 341.206 827.143 334.202C815.813 327.198 806.955 317.516 800.569 305.156C794.389 292.796 791.299 278.788 791.299 263.132C791.299 247.476 794.492 233.571 800.878 221.417C807.264 209.057 816.122 199.375 827.452 192.371C838.988 185.161 851.966 181.556 866.386 181.556C878.128 181.556 888.325 183.822 896.977 188.354C905.835 192.68 912.839 198.86 917.989 206.894V118.52H955.069V341H921.697L917.989 318.443C914.693 322.975 910.676 327.301 905.938 331.421C901.2 335.335 895.535 338.528 888.943 341C882.351 343.472 874.626 344.708 865.768 344.708ZM873.493 312.572C882.351 312.572 890.179 310.512 896.977 306.392C903.775 302.066 909.028 296.195 912.736 288.779C916.444 281.363 918.298 272.814 918.298 263.132C918.298 253.45 916.444 244.901 912.736 237.485C909.028 230.069 903.775 224.301 896.977 220.181C890.179 216.061 882.351 214.001 873.493 214.001C865.047 214.001 857.425 216.061 850.627 220.181C843.829 224.301 838.473 230.069 834.559 237.485C830.851 244.901 828.997 253.45 828.997 263.132C828.997 272.814 830.851 281.363 834.559 288.779C838.473 296.195 843.829 302.066 850.627 306.392C857.425 310.512 865.047 312.572 873.493 312.572ZM1069.24 344.708C1053.79 344.708 1040.19 341.412 1028.45 334.82C1016.71 328.022 1007.54 318.546 1000.95 306.392C994.358 294.238 991.062 280.23 991.062 264.368C991.062 247.888 994.255 233.468 1000.64 221.108C1007.23 208.748 1016.4 199.066 1028.14 192.062C1040.09 185.058 1053.89 181.556 1069.55 181.556C1084.79 181.556 1098.08 184.955 1109.41 191.753C1120.74 198.551 1129.49 207.718 1135.67 219.254C1141.85 230.584 1144.94 243.356 1144.94 257.57C1144.94 259.63 1144.94 261.896 1144.94 264.368C1144.94 266.84 1144.74 269.415 1144.33 272.093H1017.64V248.3H1107.56C1107.14 236.97 1103.33 228.112 1096.12 221.726C1088.91 215.134 1079.95 211.838 1069.24 211.838C1061.62 211.838 1054.61 213.589 1048.23 217.091C1041.84 220.593 1036.79 225.846 1033.09 232.85C1029.38 239.648 1027.52 248.3 1027.52 258.806V267.767C1027.52 277.449 1029.28 285.792 1032.78 292.796C1036.49 299.8 1041.43 305.156 1047.61 308.864C1054 312.366 1061.1 314.117 1068.93 314.117C1077.58 314.117 1084.69 312.263 1090.25 308.555C1096.02 304.847 1100.24 299.903 1102.92 293.723H1140.62C1137.73 303.405 1133 312.16 1126.4 319.988C1119.81 327.61 1111.68 333.687 1101.99 338.219C1092.31 342.545 1081.39 344.708 1069.24 344.708ZM1300.62 408.98V318.443C1295.67 325.859 1288.88 332.142 1280.22 337.292C1271.78 342.236 1261.37 344.708 1249.01 344.708C1234.39 344.708 1221.41 341.206 1210.08 334.202C1198.75 326.992 1189.89 317.31 1183.51 305.156C1177.12 292.796 1173.93 278.788 1173.93 263.132C1173.93 247.476 1177.12 233.571 1183.51 221.417C1189.89 209.057 1198.75 199.375 1210.08 192.371C1221.62 185.161 1234.59 181.556 1249.01 181.556C1257.05 181.556 1264.26 182.689 1270.64 184.955C1277.24 187.015 1283 190.002 1287.95 193.916C1292.89 197.624 1297.12 202.053 1300.62 207.203L1304.33 185.264H1337.7V408.98H1300.62ZM1256.12 312.572C1264.98 312.572 1272.81 310.512 1279.61 306.392C1286.4 302.066 1291.66 296.195 1295.36 288.779C1299.07 281.363 1300.93 272.814 1300.93 263.132C1300.93 253.244 1299.07 244.695 1295.36 237.485C1291.66 230.069 1286.4 224.301 1279.61 220.181C1272.81 216.061 1264.98 214.001 1256.12 214.001C1247.68 214.001 1240.05 216.061 1233.26 220.181C1226.46 224.301 1221.1 230.069 1217.19 237.485C1213.48 244.901 1211.63 253.45 1211.63 263.132C1211.63 272.814 1213.48 281.363 1217.19 288.779C1221.1 296.195 1226.46 302.066 1233.26 306.392C1240.05 310.512 1247.68 312.572 1256.12 312.572ZM1436.73 344.708C1424.16 344.708 1413.35 342.236 1404.28 337.292C1395.42 332.142 1388.63 324.52 1383.89 314.426C1379.15 304.126 1376.78 291.457 1376.78 276.419V185.264H1413.86V272.711C1413.86 286.101 1416.64 296.298 1422.2 303.302C1427.97 310.1 1436.62 313.499 1448.16 313.499C1455.58 313.499 1462.17 311.748 1467.94 308.246C1473.91 304.744 1478.55 299.697 1481.84 293.105C1485.34 286.307 1487.09 278.067 1487.09 268.385V185.264H1524.17V341H1491.42L1488.64 315.044C1483.9 324.108 1477 331.318 1467.94 336.674C1459.08 342.03 1448.68 344.708 1436.73 344.708ZM1638.35 344.708C1622.9 344.708 1609.31 341.412 1597.57 334.82C1585.82 328.022 1576.66 318.546 1570.07 306.392C1563.47 294.238 1560.18 280.23 1560.18 264.368C1560.18 247.888 1563.37 233.468 1569.76 221.108C1576.35 208.748 1585.52 199.066 1597.26 192.062C1609.21 185.058 1623.01 181.556 1638.66 181.556C1653.91 181.556 1667.19 184.955 1678.52 191.753C1689.85 198.551 1698.61 207.718 1704.79 219.254C1710.97 230.584 1714.06 243.356 1714.06 257.57C1714.06 259.63 1714.06 261.896 1714.06 264.368C1714.06 266.84 1713.85 269.415 1713.44 272.093H1586.75V248.3H1676.67C1676.26 236.97 1672.45 228.112 1665.24 221.726C1658.03 215.134 1649.07 211.838 1638.35 211.838C1630.73 211.838 1623.73 213.589 1617.34 217.091C1610.96 220.593 1605.91 225.846 1602.2 232.85C1598.49 239.648 1596.64 248.3 1596.64 258.806V267.767C1596.64 277.449 1598.39 285.792 1601.89 292.796C1605.6 299.8 1610.54 305.156 1616.72 308.864C1623.11 312.366 1630.22 314.117 1638.05 314.117C1646.7 314.117 1653.8 312.263 1659.37 308.555C1665.13 304.847 1669.36 299.903 1672.04 293.723H1709.73C1706.85 303.405 1702.11 312.16 1695.52 319.988C1688.93 327.61 1680.79 333.687 1671.11 338.219C1661.43 342.545 1650.51 344.708 1638.35 344.708ZM1810.4 344.708C1796.6 344.708 1784.55 342.545 1774.25 338.219C1764.16 333.687 1756.12 327.507 1750.15 319.679C1744.38 311.645 1740.98 302.478 1739.95 292.178H1777.03C1778.06 296.504 1779.92 300.521 1782.59 304.229C1785.27 307.731 1788.88 310.512 1793.41 312.572C1798.15 314.632 1803.71 315.662 1810.1 315.662C1816.28 315.662 1821.32 314.838 1825.24 313.19C1829.15 311.336 1832.03 308.967 1833.89 306.083C1835.74 303.199 1836.67 300.109 1836.67 296.813C1836.67 291.869 1835.33 288.058 1832.65 285.38C1829.97 282.702 1826.06 280.642 1820.91 279.2C1815.97 277.552 1809.99 276.007 1802.99 274.565C1795.57 273.123 1788.36 271.372 1781.36 269.312C1774.56 267.046 1768.38 264.265 1762.82 260.969C1757.46 257.673 1753.14 253.45 1749.84 248.3C1746.75 243.15 1745.21 236.867 1745.21 229.451C1745.21 220.387 1747.57 212.25 1752.31 205.04C1757.26 197.83 1764.26 192.165 1773.32 188.045C1782.59 183.719 1793.62 181.556 1806.39 181.556C1824.52 181.556 1838.94 185.779 1849.65 194.225C1860.57 202.465 1866.95 214.104 1868.81 229.142H1833.58C1832.55 223.374 1829.67 218.945 1824.93 215.855C1820.19 212.559 1813.91 210.911 1806.08 210.911C1798.04 210.911 1791.86 212.456 1787.54 215.546C1783.42 218.43 1781.36 222.344 1781.36 227.288C1781.36 230.378 1782.59 233.262 1785.07 235.94C1787.74 238.412 1791.56 240.575 1796.5 242.429C1801.44 244.077 1807.52 245.725 1814.73 247.373C1826.27 249.639 1836.46 252.317 1845.32 255.407C1854.18 258.497 1861.18 263.029 1866.33 269.003C1871.48 274.977 1874.06 283.423 1874.06 294.341C1874.26 304.229 1871.69 312.984 1866.33 320.606C1861.18 328.228 1853.87 334.202 1844.39 338.528C1834.92 342.648 1823.59 344.708 1810.4 344.708ZM1972.58 341C1962.07 341 1952.91 339.352 1945.08 336.056C1937.46 332.76 1931.48 327.301 1927.16 319.679C1922.83 312.057 1920.67 301.757 1920.67 288.779V216.473H1894.09V185.264H1920.67L1924.99 144.167H1957.75V185.264H2000.08V216.473H1957.75V288.779C1957.75 296.607 1959.4 302.066 1962.69 305.156C1966.19 308.04 1971.96 309.482 1980 309.482H1999.15V341H1972.58ZM2111.64 341V124.7H2189.51C2206.81 124.7 2221.13 127.687 2232.46 133.661C2243.79 139.429 2252.24 147.257 2257.8 157.145C2263.36 167.033 2266.14 178.363 2266.14 191.135C2266.14 203.083 2263.46 214.104 2258.11 224.198C2252.75 234.086 2244.41 242.12 2233.08 248.3C2221.75 254.274 2207.23 257.261 2189.51 257.261H2148.72V341H2111.64ZM2148.72 226.979H2187.35C2201.97 226.979 2212.48 223.786 2218.86 217.4C2225.25 210.808 2228.44 202.053 2228.44 191.135C2228.44 179.805 2225.25 170.947 2218.86 164.561C2212.48 158.175 2201.97 154.982 2187.35 154.982H2148.72V226.979ZM2296.89 341V118.52H2333.97V341H2296.89ZM2433.13 344.708C2420.57 344.708 2409.75 342.236 2400.69 337.292C2391.83 332.142 2385.03 324.52 2380.29 314.426C2375.55 304.126 2373.19 291.457 2373.19 276.419V185.264H2410.27V272.711C2410.27 286.101 2413.05 296.298 2418.61 303.302C2424.38 310.1 2433.03 313.499 2444.56 313.499C2451.98 313.499 2458.57 311.748 2464.34 308.246C2470.31 304.744 2474.95 299.697 2478.25 293.105C2481.75 286.307 2483.5 278.067 2483.5 268.385V185.264H2520.58V341H2487.82L2485.04 315.044C2480.31 324.108 2473.4 331.318 2464.34 336.674C2455.48 342.03 2445.08 344.708 2433.13 344.708ZM2627.34 412.688C2612.72 412.688 2599.84 410.834 2588.72 407.126C2577.8 403.624 2569.25 398.165 2563.07 390.749C2557.1 383.539 2554.11 374.475 2554.11 363.557C2554.11 357.171 2555.65 350.888 2558.74 344.708C2562.04 338.734 2566.88 333.172 2573.27 328.022C2579.86 322.666 2588.2 318.031 2598.3 314.117L2614.67 332.039C2604.79 335.541 2597.88 339.764 2593.97 344.708C2590.06 349.652 2588.1 354.699 2588.1 359.849C2588.1 365.205 2589.75 369.634 2593.04 373.136C2596.55 376.844 2601.18 379.625 2606.95 381.479C2612.92 383.333 2619.62 384.26 2627.03 384.26C2634.24 384.26 2640.53 383.23 2645.88 381.17C2651.24 379.316 2655.36 376.638 2658.24 373.136C2661.33 369.634 2662.88 365.411 2662.88 360.467C2662.88 354.287 2660.71 349.24 2656.39 345.326C2652.06 341.618 2643.51 339.352 2630.74 338.528C2619.82 337.704 2610.24 336.571 2602 335.129C2593.76 333.481 2586.66 331.627 2580.68 329.567C2574.92 327.507 2569.97 325.241 2565.85 322.769C2561.73 320.091 2558.33 317.413 2555.65 314.735V307.628L2588.1 273.638L2615.6 282.599L2579.14 318.134L2588.72 300.212C2590.78 301.654 2592.84 302.993 2594.9 304.229C2597.16 305.465 2599.94 306.598 2603.24 307.628C2606.74 308.452 2611.27 309.276 2616.84 310.1C2622.4 310.924 2629.61 311.748 2638.47 312.572C2652.27 313.602 2663.5 316.074 2672.15 319.988C2680.8 323.902 2687.19 329.155 2691.31 335.747C2695.43 342.339 2697.49 350.27 2697.49 359.54C2697.49 368.604 2694.91 377.153 2689.76 385.187C2684.82 393.221 2677.19 399.813 2666.89 404.963C2656.59 410.113 2643.41 412.688 2627.34 412.688ZM2627.34 294.341C2614.36 294.341 2603.14 291.869 2593.66 286.925C2584.39 281.775 2577.28 274.977 2572.34 266.531C2567.4 257.879 2564.92 248.403 2564.92 238.103C2564.92 227.597 2567.4 218.121 2572.34 209.675C2577.28 201.229 2584.39 194.431 2593.66 189.281C2603.14 184.131 2614.36 181.556 2627.34 181.556C2640.32 181.556 2651.44 184.131 2660.71 189.281C2669.98 194.431 2677.09 201.229 2682.04 209.675C2686.98 218.121 2689.45 227.597 2689.45 238.103C2689.45 248.403 2686.98 257.879 2682.04 266.531C2677.09 274.977 2669.98 281.775 2660.71 286.925C2651.44 291.869 2640.32 294.341 2627.34 294.341ZM2627.34 265.604C2636.2 265.604 2643.31 263.235 2648.66 258.497C2654.02 253.759 2656.7 246.961 2656.7 238.103C2656.7 229.245 2654.02 222.55 2648.66 218.018C2643.31 213.28 2636.2 210.911 2627.34 210.911C2618.48 210.911 2611.27 213.28 2605.71 218.018C2600.15 222.55 2597.37 229.245 2597.37 238.103C2597.37 246.961 2600.15 253.759 2605.71 258.497C2611.27 263.235 2618.48 265.604 2627.34 265.604ZM2652.99 212.456L2645.88 185.264H2709.85V208.439L2652.99 212.456ZM2744.13 341V185.264H2781.21V341H2744.13ZM2762.67 160.544C2755.87 160.544 2750.21 158.484 2745.68 154.364C2741.35 150.038 2739.19 144.785 2739.19 138.605C2739.19 132.219 2741.35 127.069 2745.68 123.155C2750.21 119.035 2755.87 116.975 2762.67 116.975C2769.47 116.975 2775.03 119.035 2779.36 123.155C2783.89 127.069 2786.16 132.219 2786.16 138.605C2786.16 144.785 2783.89 150.038 2779.36 154.364C2775.03 158.484 2769.47 160.544 2762.67 160.544ZM2824.06 341V185.264H2856.82L2859.6 211.22C2864.34 202.156 2871.13 194.946 2879.99 189.59C2888.85 184.234 2899.36 181.556 2911.51 181.556C2924.08 181.556 2934.79 184.234 2943.65 189.59C2952.5 194.74 2959.3 202.362 2964.04 212.456C2968.98 222.55 2971.46 235.116 2971.46 250.154V341H2934.38V253.553C2934.38 240.575 2931.49 230.584 2925.72 223.58C2919.96 216.576 2911.41 213.074 2900.08 213.074C2892.66 213.074 2885.97 214.825 2879.99 218.327C2874.22 221.829 2869.59 226.979 2866.09 233.777C2862.79 240.369 2861.14 248.403 2861.14 257.879V341H2824.06ZM3072.66 344.708C3058.86 344.708 3046.8 342.545 3036.5 338.219C3026.41 333.687 3018.38 327.507 3012.4 319.679C3006.63 311.645 3003.24 302.478 3002.21 292.178H3039.29C3040.32 296.504 3042.17 300.521 3044.85 304.229C3047.53 307.731 3051.13 310.512 3055.66 312.572C3060.4 314.632 3065.96 315.662 3072.35 315.662C3078.53 315.662 3083.58 314.838 3087.49 313.19C3091.4 311.336 3094.29 308.967 3096.14 306.083C3098 303.199 3098.92 300.109 3098.92 296.813C3098.92 291.869 3097.58 288.058 3094.91 285.38C3092.23 282.702 3088.31 280.642 3083.16 279.2C3078.22 277.552 3072.25 276.007 3065.24 274.565C3057.83 273.123 3050.62 271.372 3043.61 269.312C3036.81 267.046 3030.63 264.265 3025.07 260.969C3019.72 257.673 3015.39 253.45 3012.09 248.3C3009 243.15 3007.46 236.867 3007.46 229.451C3007.46 220.387 3009.83 212.25 3014.57 205.04C3019.51 197.83 3026.51 192.165 3035.58 188.045C3044.85 183.719 3055.87 181.556 3068.64 181.556C3086.77 181.556 3101.19 185.779 3111.9 194.225C3122.82 202.465 3129.2 214.104 3131.06 229.142H3095.83C3094.8 223.374 3091.92 218.945 3087.18 215.855C3082.44 212.559 3076.16 210.911 3068.33 210.911C3060.3 210.911 3054.12 212.456 3049.79 215.546C3045.67 218.43 3043.61 222.344 3043.61 227.288C3043.61 230.378 3044.85 233.262 3047.32 235.94C3050 238.412 3053.81 240.575 3058.75 242.429C3063.7 244.077 3069.77 245.725 3076.98 247.373C3088.52 249.639 3098.72 252.317 3107.57 255.407C3116.43 258.497 3123.44 263.029 3128.59 269.003C3133.74 274.977 3136.31 283.423 3136.31 294.341C3136.52 304.229 3133.94 312.984 3128.59 320.606C3123.44 328.228 3116.12 334.202 3106.65 338.528C3097.17 342.648 3085.84 344.708 3072.66 344.708Z" fill="black"/>
<defs>
<linearGradient id="paint0_linear_372_907" x1="268.247" y1="-10.6236" x2="88.973" y2="159.354" gradientUnits="userSpaceOnUse">
<stop stop-color="#2F5DFF"/>
<stop offset="1" stop-color="#767FF8"/>
</linearGradient>
<linearGradient id="paint1_linear_372_907" x1="82.333" y1="460.8" x2="256.639" y2="321.796" gradientUnits="userSpaceOnUse">
<stop stop-color="#3461FF"/>
<stop offset="1" stop-color="#767FF8"/>
</linearGradient>
<clipPath id="clip0_372_907">
<rect width="339" height="483.773" fill="white"/>
</clipPath>
</defs>
</svg>
