<svg width="512" height="512" viewBox="0 0 512 512" fill="none" xmlns="http://www.w3.org/2000/svg">
<g clip-path="url(#clip0_377_969)">
<path d="M168.563 109.931L371.846 14C371.846 14 374.821 52.2185 362.604 76.706C350.386 101.193 343.667 106.133 332.379 114.659C318.144 125.415 207.844 174.682 207.844 174.682C207.844 174.682 173.503 162.598 164.234 151.39C154.965 140.182 154.354 120.21 168.563 109.931Z" fill="url(#paint0_linear_377_969)"/>
<path d="M339.604 401.842L136.294 497.774C136.294 497.774 133.319 459.555 145.536 435.068C157.754 410.58 164.473 405.64 175.761 397.115C189.996 386.358 303.457 336.693 303.457 336.693C303.457 336.693 334.637 349.176 343.906 360.384C353.175 371.591 353.786 391.564 339.577 401.842H339.604Z" fill="#3D68FE"/>
<path d="M339.604 401.842L136.294 497.774C136.294 497.774 133.319 459.555 145.536 435.068C157.754 410.58 164.473 405.64 175.761 397.115C189.996 386.358 303.457 336.693 303.457 336.693C303.457 336.693 334.637 349.176 343.906 360.384C353.175 371.591 353.786 391.564 339.577 401.842H339.604Z" fill="url(#paint1_linear_377_969)"/>
<path d="M142.854 123.901C141.313 138.589 137.383 152.718 161.472 169.37C170.767 175.798 201.231 191.6 251.746 212.688C302.261 233.776 353.972 258.29 360.346 262.46C366.72 266.63 387.967 279.803 394.129 301.369C400.291 322.935 399.043 337.808 394.395 351.061C389.747 364.314 381.779 374.831 364.542 387.235C366.109 367.873 366.933 350.689 336.39 334.541C307.892 319.482 228.029 284.717 191.536 267.931C171.113 258.529 149.52 249.765 137.542 241.133C128.167 234.361 114.887 218.505 110.903 198.585C106.919 178.666 119.378 142.801 142.907 123.954L142.854 123.901Z" fill="#225AF3"/>
<path d="M421.458 188.36L351.661 223.471C346.164 226.233 339.683 222.25 339.683 216.088V145.892C339.683 139.731 346.19 135.747 351.688 138.509L421.458 173.593C427.541 176.648 427.541 185.306 421.458 188.36Z" fill="#2F50C1"/>
<path d="M168.775 333.851L98.9781 368.962C93.4804 371.724 87 367.714 87 361.579V291.383C87 285.221 93.507 281.237 99.0047 284L168.775 319.084C174.857 322.138 174.857 330.797 168.775 333.851Z" fill="#2F50C1"/>
</g>
<defs>
<linearGradient id="paint0_linear_377_969" x1="355.247" y1="3.37637" x2="175.973" y2="173.354" gradientUnits="userSpaceOnUse">
<stop stop-color="#2F5DFF"/>
<stop offset="1" stop-color="#767FF8"/>
</linearGradient>
<linearGradient id="paint1_linear_377_969" x1="169.333" y1="474.8" x2="343.639" y2="335.796" gradientUnits="userSpaceOnUse">
<stop stop-color="#3461FF"/>
<stop offset="1" stop-color="#767FF8"/>
</linearGradient>
<clipPath id="clip0_377_969">
<rect width="339" height="483.773" fill="white" transform="translate(87 14)"/>
</clipPath>
</defs>
</svg>
