<svg width="116" height="71" viewBox="0 0 116 71" fill="none" xmlns="http://www.w3.org/2000/svg">
<path d="M43.7708 52.5859H19.4654L14.4149 68.1583C14.2045 68.6843 13.8888 69 13.2575 69H1.05218C0.315655 69 0.105218 68.5791 0.210437 67.9478L21.2541 7.23685C21.675 6.07944 22.0958 4.81683 22.3063 0.818532C22.3063 0.397657 22.6219 0.0820003 22.9376 0.0820003H39.7725C40.2986 0.0820003 40.5091 0.187217 40.6143 0.713308L64.4988 68.053C64.7093 68.5791 64.604 69 63.9727 69H50.2944C49.663 69 49.3474 68.7896 49.137 68.2635L43.7708 52.5859ZM23.2532 39.4337H39.8777C37.7734 32.4892 33.5646 19.7578 31.5655 12.2873H31.4603C29.7768 19.337 25.9889 30.911 23.2532 39.4337ZM103.144 46.6937H82.626C83.1521 52.6912 87.3608 57.6364 97.6722 57.6364C102.407 57.6364 106.616 56.8999 110.614 55.2164C110.93 55.006 111.245 55.1112 111.245 55.7425V65.7382C111.245 66.4748 111.035 66.7904 110.509 67.0009C106.3 69 101.67 70.0522 94.4104 70.0522C74.6294 70.0522 67.685 56.479 67.685 43.4319C67.685 28.9118 76.6285 15.6543 93.1478 15.6543C109.036 15.6543 115.349 27.9649 115.349 38.3815C115.349 41.6432 115.138 44.2737 114.823 45.4311C114.718 45.9572 114.507 46.1676 113.981 46.2728C112.613 46.4833 108.615 46.6937 103.144 46.6937ZM82.5208 36.4875H96.3044C99.6713 36.4875 101.144 36.3823 101.565 36.2771C101.565 36.0667 101.565 35.6458 101.565 35.5406C101.565 33.0153 99.5661 27.2283 92.6217 27.2283C85.993 27.2283 83.1521 32.1736 82.5208 36.4875Z" fill="black"/>
</svg>
