<svg width="60" height="73" fill="none" xmlns="http://www.w3.org/2000/svg"><g clip-path="url(#a)"><path d="M58.09 24.886c-.427.328-7.975 4.54-7.975 13.906 0 10.833 9.605 14.666 9.892 14.76-.044.234-1.525 5.25-5.063 10.36-3.155 4.496-6.45 8.986-11.462 8.986-5.013 0-6.303-2.884-12.089-2.884-5.639 0-7.644 2.979-12.228 2.979-4.585 0-7.784-4.161-11.462-9.271C3.443 57.722 0 48.399 0 39.552 0 25.36 9.317 17.833 18.486 17.833c4.873 0 8.934 3.168 11.993 3.168 2.912 0 7.452-3.358 12.995-3.358 2.1 0 9.649.19 14.617 7.242Zm-17.247-13.25c2.292-2.693 3.914-6.431 3.914-10.169 0-.518-.044-1.044-.14-1.467-3.73.139-8.167 2.46-10.843 5.533-2.1 2.366-4.062 6.103-4.062 9.892 0 .57.096 1.139.14 1.321.236.044.62.095 1.003.095 3.347 0 7.555-2.22 9.988-5.205Z" fill="#000"/></g><defs><clipPath id="a"><path fill="#fff" d="M0 0h60v73H0z"/></clipPath></defs></svg>